<svg height="512" viewBox="0 0 64 64" width="512" xmlns="http://www.w3.org/2000/svg"><g id="Coding-Programming-Monitor-Computer-Software"><path d="m48 45h-32a2.006 2.006 0 0 0 -2 2v4a2.006 2.006 0 0 1 2 2v-1a2.015 2.015 0 0 1 2-2 2.006 2.006 0 0 1 2 2 2.015 2.015 0 0 1 2-2 2.006 2.006 0 0 1 2 2v8l2-3.46a2 2 0 0 1 1.74-1.01 1.967 1.967 0 0 1 .99.27 2 2 0 0 1 .73 2.74l-.27.46h5.62l-.27-.46a2 2 0 0 1 .73-2.74 1.967 1.967 0 0 1 .99-.27 2 2 0 0 1 1.74 1.01l2 3.46v-8a2.006 2.006 0 0 1 2-2 2.015 2.015 0 0 1 2 2 2.006 2.006 0 0 1 2-2 2.015 2.015 0 0 1 2 2v1a2.006 2.006 0 0 1 2-2v-4a2.006 2.006 0 0 0 -2-2z" fill="#bddbff"/><path d="m39 37a2.015 2.015 0 0 1 2 2 2.006 2.006 0 0 1 -2 2h-14a2.015 2.015 0 0 1 -2-2 2.006 2.006 0 0 1 2-2z" fill="#bddbff"/><path d="m37 31 1 6h-12l1-6z" fill="#bddbff"/><path d="m11 25h42v4a2.006 2.006 0 0 1 -2 2h-38a2.006 2.006 0 0 1 -2-2z" fill="#bddbff"/><g fill="#3d9ae2"><path d="m46 27h2v2h-2z"/><path d="m29 52h2v2h-2z"/><path d="m33 52h2v2h-2z"/><path d="m37 48h2v2h-2z"/><path d="m33 48h2v2h-2z"/><path d="m25 48h2v2h-2z"/><path d="m29 48h2v2h-2z"/><path d="m54 51a2.934 2.934 0 0 0 -1.47.39 3.036 3.036 0 0 0 -1.53-1.2v-3.19a3.009 3.009 0 0 0 -3-3h-2v-1a1 1 0 0 1 1-1h4a3 3 0 0 0 0-6h-4a1 1 0 0 1 -1-1v-3h5a3.009 3.009 0 0 0 3-3v-24a3.009 3.009 0 0 0 -3-3h-38a3.009 3.009 0 0 0 -3 3v24a3.009 3.009 0 0 0 3 3h12.82l-.67 4h-.15a3 3 0 0 0 0 6h14a3 3 0 0 0 0-6h-.15l-.67-4h5.82v3a3.009 3.009 0 0 0 3 3h4a1 1 0 0 1 0 2h-4a3.009 3.009 0 0 0 -3 3v1h-28a3.009 3.009 0 0 0 -3 3v3.19a3.036 3.036 0 0 0 -1.53 1.2 2.934 2.934 0 0 0 -1.47-.39 3.009 3.009 0 0 0 -3 3v8h2v-8a1 1 0 0 1 2 0v3a1 1 0 0 0 2 0v-4a1 1 0 0 1 2 0v4a1 1 0 0 0 2 0v-5a1 1 0 0 1 2 0v5a1 1 0 0 0 2 0v-5a1 1 0 0 1 2 0v8a1 1 0 0 0 .74.97 1.022 1.022 0 0 0 1.13-.47l2-3.46a.971.971 0 0 1 .6-.47 1 1 0 0 1 1.13 1.47l-2 3.46 1.73 1 1.44-2.5h4.46l1.44 2.5 1.73-1-2-3.46a1.01 1.01 0 0 1 .37-1.37.99.99 0 0 1 1.36.37l2 3.46a1.022 1.022 0 0 0 1.13.47 1 1 0 0 0 .74-.97v-8a1 1 0 0 1 2 0v5a1 1 0 0 0 2 0v-5a1 1 0 0 1 2 0v5a1 1 0 0 0 2 0v-4a1 1 0 0 1 2 0v4a1 1 0 0 0 2 0v-3a1 1 0 0 1 2 0v8h2v-8a3.009 3.009 0 0 0 -3-3zm-42-46a1 1 0 0 1 1-1h38a1 1 0 0 1 1 1v19h-40zm27 33a1 1 0 0 1 0 2h-14a1 1 0 0 1 0-2zm-11.82-2 .67-4h8.3l.67 4zm-14.18-6a1 1 0 0 1 -1-1v-3h40v3a1 1 0 0 1 -1 1zm36 20.19a2.765 2.765 0 0 0 -.47.2 3.036 3.036 0 0 0 -1.53-1.2v-1.19h-2v1.18a2.973 2.973 0 0 0 -1 .59 2.973 2.973 0 0 0 -1-.59v-1.18h-2v1.18a3.01 3.01 0 0 0 -2 2.82v4.27l-.13-.23a3 3 0 0 0 -5.56 1.96h-2.62a2.891 2.891 0 0 0 -.06-1.24 3 3 0 0 0 -5.5-.72l-.13.23v-4.27a3.01 3.01 0 0 0 -2-2.82v-1.18h-2v1.18a2.973 2.973 0 0 0 -1 .59 2.973 2.973 0 0 0 -1-.59v-1.18h-2v1.19a3.036 3.036 0 0 0 -1.53 1.2 2.765 2.765 0 0 0 -.47-.2v-3.19a1 1 0 0 1 1-1h32a1 1 0 0 1 1 1z"/><path d="m21.293 15.707 1.414-1.414-2.293-2.293 2.293-2.293-1.414-1.414-3 3a1 1 0 0 0 0 1.414z"/><path d="m30.707 15.707 3-3a1 1 0 0 0 0-1.414l-3-3-1.414 1.414 2.293 2.293-2.293 2.293z"/><path d="m21.877 11h8.246v2h-8.246z" transform="matrix(.243 -.97 .97 .243 8.05 34.311)"/><path d="m36 14h10v2h-10z"/><path d="m36 10h2v2h-2z"/><path d="m40 10h6v2h-6z"/><path d="m34 18h12v2h-12z"/><path d="m26 18h6v2h-6z"/><path d="m22 18h2v2h-2z"/></g></g></svg>